<?xml version="1.0" encoding="UTF-8"?>
<svg id="Layer_2" data-name="Layer 2" xmlns="http://www.w3.org/2000/svg" viewBox="0 0 331.46 143.23">
  <g id="Layer_3" data-name="Layer 3">
    <g>
      <path d="M46.65,103.87c-13.05,0-23.64-4.19-31.76-12.58-8.13-8.38-12.19-18.79-12.19-31.23s4.06-22.71,12.19-31.05c8.13-8.34,18.71-12.52,31.76-12.52,5.86,0,11.31.94,16.35,2.83,5.04,1.89,8.83,3.85,11.37,5.9,2.54,2.05,4.75,4.23,6.62,6.56l-14.77,15.41c-4.92-5.86-11.06-8.79-18.4-8.79-6.17,0-11.17,2.05-15,6.14-3.83,4.09-5.74,9.27-5.74,15.53s1.99,11.58,5.98,15.71c3.99,4.13,9.18,6.2,15.59,6.2,7.27,0,12.5-1.32,15.71-3.97v-4.69h-13.24v-19.62h34.58v37.07c-3.83,2.73-7.09,4.86-9.79,6.38-2.7,1.52-6.68,3.03-11.96,4.51-5.27,1.48-11.04,2.23-17.29,2.23Z" fill="#f8cc27"/>
      <path d="M136.55,103.87c-13.05,0-23.64-4.19-31.76-12.58-8.13-8.38-12.19-18.79-12.19-31.23s4.06-22.71,12.19-31.05c8.13-8.34,18.71-12.52,31.76-12.52,5.86,0,11.31.94,16.35,2.83,5.04,1.89,8.83,3.85,11.37,5.9,2.54,2.05,4.75,4.23,6.62,6.56l-14.77,15.41c-4.92-5.86-11.06-8.79-18.4-8.79-6.17,0-11.17,2.05-15,6.14-3.83,4.09-5.74,9.27-5.74,15.53s1.99,11.58,5.98,15.71c3.99,4.13,9.18,6.2,15.59,6.2,7.27,0,12.5-1.32,15.71-3.97v-4.69h-13.24v-19.62h34.58v37.07c-3.83,2.73-7.09,4.86-9.79,6.38-2.7,1.52-6.68,3.03-11.96,4.51-5.27,1.48-11.04,2.23-17.29,2.23Z" fill="#f8cc27"/>
      <path d="M186.6,102.31V18.05h26.72c13.28,0,23.91,3.75,31.88,11.25,7.97,7.5,11.96,17.79,11.96,30.87s-3.97,23.17-11.9,30.75c-7.93,7.58-18.58,11.37-31.94,11.37h-26.72ZM209.92,82.08h2.93c6.17,0,11.06-1.87,14.65-5.6,3.59-3.73,5.39-9.17,5.39-16.31s-1.8-12.68-5.39-16.37c-3.59-3.69-8.48-5.54-14.65-5.54h-2.93v43.81Z" fill="#f8cc27"/>
      <path d="M266.77,102.31V18.05h31.76c8.67,0,15.47,1.99,20.39,5.96s7.38,9.61,7.38,16.91-2.93,13.12-8.79,17.21c7.58,3.45,11.37,9.67,11.37,18.66,0,8.43-2.77,14.79-8.32,19.08-5.55,4.29-12.7,6.44-21.45,6.44h-32.35ZM289.97,49.95h6.8c1.8,0,3.2-.56,4.22-1.69,1.01-1.12,1.52-2.61,1.52-4.45s-.51-3.17-1.52-4.21c-1.02-1.04-2.5-1.56-4.45-1.56h-6.56v11.92ZM289.97,82.21h8.32c2.03,0,3.65-.7,4.86-2.11,1.21-1.4,1.82-2.99,1.82-4.75s-.57-3.43-1.7-4.75c-1.13-1.32-2.68-1.99-4.63-1.99h-8.67v13.6Z" fill="#f8cc27"/>
    </g>
  </g>
</svg>